<svg xmlns="http://www.w3.org/2000/svg" viewBox="0 -0.5 64 64" shape-rendering="crispEdges">
<metadata>Made with Pixels to Svg https://codepen.io/shshaw/pen/XbxvNj</metadata>
<path stroke="#193c3e" d="M37 7h6M34 8h3M42 8h1M33 9h1M42 9h1M32 10h1M42 10h1M33 11h1M40 11h2M34 12h6" />
<path stroke="#3e2731" d="M31 8h1M31 9h1M31 10h1M31 11h1M30 12h1M30 13h1M30 14h1M30 15h1M30 16h1M30 17h1M30 18h1M30 19h1" />
<path stroke="#3e8948" d="M37 8h3M34 9h3M40 9h2M37 10h5M34 11h6" />
<path stroke="#265c42" d="M40 8h2M37 9h3M33 10h4" />
<path stroke="#a22633" d="M25 18h3M23 19h2M28 19h2M21 20h2M30 20h2M36 20h7M19 21h2M32 21h1M34 21h7M43 21h1M18 22h1M36 22h4M44 22h1M17 23h1M44 23h1M16 24h1M44 24h2M16 25h1M44 25h3M15 26h1M44 26h3M15 27h1M44 27h3M15 28h1M44 28h3M15 29h1M44 29h3M15 30h1M44 30h2M15 31h1M44 31h2M15 32h1M43 32h4M15 33h1M43 33h3M15 34h1M43 34h3M15 35h1M42 35h4M15 36h1M41 36h5M16 37h1M41 37h3M45 37h1M18 38h1M40 38h4M45 38h1M18 39h4M39 39h7M19 40h8M35 40h11M20 41h2M23 41h21M20 42h2M23 42h19M22 43h8M33 43h4M38 43h3" />
<path stroke="#e43b44" d="M25 19h3M23 20h7M21 21h2M25 21h7M33 21h1M42 21h1M19 22h2M23 22h4M28 22h7M40 22h1M42 22h2M18 23h2M22 23h5M28 23h7M36 23h8M17 24h2M20 24h24M17 25h1M20 25h24M16 26h2M20 26h24M16 27h1M18 27h7M26 27h4M31 27h3M35 27h8M16 28h1M18 28h7M26 28h4M31 28h3M35 28h8M16 29h1M18 29h26M16 30h1M18 30h26M16 31h1M18 31h26M16 32h4M21 32h5M27 32h7M35 32h8M16 33h4M21 33h5M27 33h7M35 33h4M40 33h3M16 34h23M40 34h3M16 35h26M16 36h25M17 37h24M19 38h10M30 38h10M22 39h17M27 40h8" />
<path stroke="#733e39" d="M36 19h7M33 20h3M43 20h1M44 21h1M45 22h1M45 23h1M46 24h1M47 25h1M47 26h1M47 27h1M47 28h1M47 29h1M47 30h1M47 31h1M47 32h1M46 33h1M46 34h1M46 35h1M46 36h1M46 37h1M17 38h1M46 38h1M17 39h1M46 39h1M18 40h1M46 40h1M19 41h1M44 41h2M19 42h1M42 42h2M20 43h2M30 43h3M41 43h1M22 44h8M33 44h8" />
<path stroke="#feae34" d="M23 21h2M22 22h1M20 23h1M19 24h1M18 25h1M18 26h1M17 27h1M17 28h1M17 29h1M17 30h1M17 31h1" />
<path stroke="#bb463e" d="M41 21h1M35 22h1M46 30h1M46 31h1M44 37h1M44 38h1M22 41h1M22 42h1M37 43h1" />
<path stroke="#ffea55" d="M21 22h1" />
<path stroke="#fd6d5a" d="M27 22h1M41 22h1M21 23h1M27 23h1M35 23h1M19 25h1M19 26h1M25 27h1M30 27h1M34 27h1M43 27h1M25 28h1M30 28h1M34 28h1M43 28h1M20 32h1M26 32h1M34 32h1M20 33h1M26 33h1M34 33h1M39 33h1M39 34h1M29 38h1" />
<path stroke="#ffffff" d="M30 45h1M30 46h1M36 46h1M24 47h1M30 47h1M36 47h1M24 48h1M30 48h1M36 48h1M24 49h1M30 49h1M36 49h1M24 50h1M30 50h1M36 50h1M24 51h1M30 51h1M36 51h1M24 52h1M30 52h1M36 52h1M24 53h1M30 53h1M36 53h1M24 54h1M30 54h1M36 54h1M24 55h1M30 55h1M36 55h1M24 56h1M30 56h1M36 56h1M24 57h1M30 57h1M36 57h1M24 58h1M36 58h1M24 59h1" />
<path stroke="#ead4aa" d="M31 45h1M31 46h1M37 46h1M25 47h1M31 47h1M37 47h1M25 48h1M31 48h1M37 48h1M25 49h1M31 49h1M37 49h1M25 50h1M31 50h1M37 50h1M25 51h1M31 51h1M37 51h1M25 52h1M31 52h1M37 52h1M25 53h1M31 53h1M37 53h1M25 54h1M31 54h1M37 54h1M25 55h1M31 55h1M37 55h1M25 56h1M31 56h1M37 56h1M25 57h1M31 57h1M37 57h1M25 58h1M37 58h1M37 59h1" />
</svg>